<svg width="71" height="71" viewBox="0 0 71 71" fill="none" xmlns="http://www.w3.org/2000/svg">
<path d="M22.9582 60.2916H48.0415V51.0312C48.0415 47.5312 46.8262 44.5781 44.3957 42.1719C41.9651 39.7656 38.9998 38.5625 35.4998 38.5625C31.9998 38.5625 29.0346 39.7656 26.604 42.1719C24.1734 44.5781 22.9582 47.5312 22.9582 51.0312V60.2916ZM35.4998 32.4375C38.9998 32.4375 41.9651 31.2222 44.3957 28.7916C46.8262 26.3611 48.0415 23.3958 48.0415 19.8958V10.7083H22.9582V19.8958C22.9582 23.3958 24.1734 26.3611 26.604 28.7916C29.0346 31.2222 31.9998 32.4375 35.4998 32.4375ZM12.1665 64.6666V60.2916H18.5832V51.0312C18.5832 47.5798 19.5554 44.4444 21.4998 41.625C23.4443 38.8055 26.0207 36.7639 29.229 35.5C26.0207 34.1875 23.4443 32.1215 21.4998 29.3021C19.5554 26.4826 18.5832 23.3472 18.5832 19.8958V10.7083H12.1665V6.33331H58.8332V10.7083H52.4165V19.8958C52.4165 23.3472 51.4443 26.4826 49.4998 29.3021C47.5554 32.1215 44.979 34.1875 41.7707 35.5C44.979 36.7639 47.5554 38.8055 49.4998 41.625C51.4443 44.4444 52.4165 47.5798 52.4165 51.0312V60.2916H58.8332V64.6666H12.1665Z" fill="white"/>
</svg>
