<svg width="48" height="48" viewBox="0 0 48 48" fill="none" xmlns="http://www.w3.org/2000/svg">
<mask id="mask0_1_2526" style="mask-type:alpha" maskUnits="userSpaceOnUse" x="0" y="0" width="48" height="48">
<rect width="48" height="48" fill="#D9D9D9"/>
</mask>
<g mask="url(#mask0_1_2526)">
<path d="M22.6491 34.0004H25.6491V22.0004H22.6491V34.0004ZM23.9981 18.3004C24.4655 18.3004 24.8575 18.1471 25.1741 17.8404C25.4908 17.5338 25.6491 17.1538 25.6491 16.7004C25.6491 16.2188 25.4911 15.8151 25.1751 15.4894C24.8591 15.1634 24.4675 15.0004 24.0001 15.0004C23.5328 15.0004 23.1408 15.1634 22.8241 15.4894C22.5075 15.8151 22.3491 16.2188 22.3491 16.7004C22.3491 17.1538 22.5071 17.5338 22.8231 17.8404C23.1391 18.1471 23.5308 18.3004 23.9981 18.3004ZM24.0126 44.0004C21.2546 44.0004 18.663 43.4754 16.2376 42.4254C13.812 41.3754 11.6908 39.9421 9.87415 38.1254C8.05748 36.3088 6.62415 34.1864 5.57415 31.7584C4.52415 29.3304 3.99915 26.7361 3.99915 23.9754C3.99915 21.2148 4.52415 18.6204 5.57415 16.1924C6.62415 13.7644 8.05748 11.6504 9.87415 9.85043C11.6908 8.05043 13.8131 6.62543 16.2411 5.57543C18.6691 4.52543 21.2635 4.00043 24.0241 4.00043C26.7848 4.00043 29.3791 4.52543 31.8071 5.57543C34.2351 6.62543 36.3491 8.05043 38.1491 9.85043C39.9491 11.6504 41.3741 13.7671 42.4241 16.2004C43.4741 18.6338 43.9991 21.2293 43.9991 23.9869C43.9991 26.7449 43.4741 29.3366 42.4241 31.7619C41.3741 34.1876 39.9491 36.3058 38.1491 38.1164C36.3491 39.9268 34.2325 41.3601 31.7991 42.4164C29.3658 43.4724 26.7703 44.0004 24.0126 44.0004ZM24.0241 41.0004C28.7408 41.0004 32.7491 39.3421 36.0491 36.0254C39.3491 32.7088 40.9991 28.6921 40.9991 23.9754C40.9991 19.2588 39.3523 15.2504 36.0586 11.9504C32.765 8.65043 28.7451 7.00043 23.9991 7.00043C19.2991 7.00043 15.2908 8.64726 11.9741 11.9409C8.65748 15.2346 6.99915 19.2544 6.99915 24.0004C6.99915 28.7004 8.65748 32.7088 11.9741 36.0254C15.2908 39.3421 19.3075 41.0004 24.0241 41.0004Z" fill="white"/>
</g>
</svg>
