<svg width="75" height="77" viewBox="0 0 75 77" fill="none" xmlns="http://www.w3.org/2000/svg">
<path d="M69.584 0.859375C72.5691 0.859422 74.9931 3.28344 74.9932 6.26855V8.48535L75 38.6846C75 59.3667 58.227 76.1404 37.5449 76.1406H0L63.8428 12.2979L52.4043 0.859375H69.584ZM37.6328 38.4932L0 76.1328V63.4092H9.96094V53.4482H0V43.4805H9.96094V33.5127H0V23.5449H9.96094V13.584H0V0.859375L37.6328 38.4932ZM9.97559 43.4727V53.4414H19.9434V43.4727H9.97559ZM19.958 33.5127V43.4805H29.9258V33.5127H19.958ZM9.97559 23.5449V33.5127H19.9434V23.5449H9.97559Z" fill="white"/>
</svg>
