<svg width="41" height="40" viewBox="0 0 41 40" fill="none" xmlns="http://www.w3.org/2000/svg">
<path d="M12.9769 3.4557C12.9692 3.58783 12.9478 3.95061 12.94 4.1555C12.9242 4.57359 12.9124 5.14786 12.9305 5.75809C12.9484 6.35812 12.9963 7.04425 13.1145 7.66801C13.1736 7.98033 13.2577 8.3175 13.3841 8.63875C13.504 8.94374 13.704 9.34414 14.0531 9.68175C14.6754 10.2835 15.5388 10.458 16.0404 10.5316C16.6395 10.6194 17.2857 10.6312 17.8421 10.6174C18.409 10.6033 18.9387 10.561 19.3228 10.523C19.5105 10.5044 19.8442 10.4635 19.9672 10.4485L19.9779 10.4472C20.6003 10.3597 21.121 9.92952 21.3239 9.33466C21.5268 8.73979 21.3778 8.08138 20.9385 7.63185L19.7428 6.4081C24.2504 3.80135 30.3852 5.55378 33.0984 10.9614C33.5112 11.7841 34.5127 12.1165 35.3355 11.7037C36.1582 11.2909 36.4905 10.2893 36.0777 9.4666C32.4446 2.22531 23.5813 -0.31523 17.34 3.94907L15.8316 2.40541C15.3739 1.93701 14.6843 1.78006 14.069 2.00425C13.4537 2.22844 13.0266 2.79263 12.9775 3.44568L12.9769 3.4557Z" fill="white"/>
<path d="M13.549 18.4686C13.1436 18.2376 12.9409 18.1221 12.7424 18.1752C12.544 18.2284 12.4262 18.4298 12.1906 18.8325L12.1826 18.8463C11.4203 20.1496 11.8712 21.8178 13.1955 22.5725L14.7153 23.4387C15.0703 23.641 15.1928 24.0905 14.9889 24.4427C14.7849 24.7948 14.3318 24.9163 13.9768 24.714L12.4569 23.8478C11.9699 23.5702 11.3489 23.7364 11.07 24.2133C10.3077 25.5166 10.7586 27.1849 12.0828 27.9396L13.6027 28.8057C13.9577 29.0081 14.0802 29.4575 13.8762 29.8097C13.6723 30.1618 13.2192 30.2833 12.8642 30.081L11.3443 29.2148C10.9425 28.9858 10.432 29.17 10.2717 29.5924L10.058 30.1555C9.58469 31.4026 10.0931 32.8067 11.2654 33.4748C12.9252 34.4207 16.3789 36.3878 17.3794 36.8773C18.3745 37.3642 19.1129 37.6277 19.8112 37.7376C20.5951 37.861 21.8899 37.6853 22.9586 37.4761C24.0266 37.2671 25.1722 37.3988 26.1547 37.9587C26.7796 38.3148 27.577 38.1028 27.9387 37.4845L33.039 28.7644C33.8182 27.4324 34.2077 26.7663 34.1683 26.1704C34.129 25.5745 33.4893 24.7512 32.2099 23.1048C31.725 22.4807 31.3201 21.8128 31.0411 21.1293L27.2144 11.7539C26.8132 10.8392 25.8342 10.301 24.83 10.4504C23.5163 10.6459 22.678 11.9198 23.021 13.1758L24.0696 17.0146C24.1481 17.3018 24.0443 17.6075 23.8069 17.7892C23.5694 17.9709 23.2449 17.9928 22.9849 17.8446L7.84288 9.21556C6.93619 8.69884 5.77848 9.00693 5.25723 9.89811C4.73724 10.7871 5.04433 11.9256 5.94889 12.4411L15.8282 18.0714C16.1832 18.2737 16.3056 18.7232 16.1017 19.0753C15.8977 19.4275 15.4446 19.5489 15.0896 19.3466L13.549 18.4686Z" fill="white"/>
</svg>
