<svg width="44" height="24" viewBox="0 0 44 24" fill="none" xmlns="http://www.w3.org/2000/svg">
<path d="M15.568 23L10.608 16.472H4.528V23H0.0480001V0.599998H11.568C16.368 0.599998 20.336 3.768 20.336 8.536C20.336 11.672 18.288 14.296 15.504 15.608L21.136 23H15.568ZM15.856 8.536C15.856 6.328 14.064 4.728 11.568 4.728H4.528V12.28H11.568C14.032 12.28 15.856 10.648 15.856 8.536ZM33.5425 19.096C37.0305 19.096 39.4945 16.408 39.4945 12.504V0.599998H43.9745V12.504C43.9745 18.68 39.7505 23.384 33.5425 23.384C27.4625 23.384 23.1105 18.68 23.1105 12.504V0.599998H27.5905V12.504C27.5905 16.312 30.1185 19.096 33.5425 19.096Z" fill="white"/>
</svg>
