<svg width="71" height="71" viewBox="0 0 71 71" fill="none" xmlns="http://www.w3.org/2000/svg">
<mask id="mask0_1_2672" style="mask-type:alpha" maskUnits="userSpaceOnUse" x="0" y="0" width="71" height="71">
<rect x="0.5" y="0.5" width="70" height="70" fill="#D9D9D9"/>
</mask>
<g mask="url(#mask0_1_2672)">
<path d="M9.25 61.75V23.6875L46.8021 9.25V35.5H53C53 34.2969 53.4297 33.2668 54.2892 32.4098C55.1481 31.5533 56.1811 31.125 57.3881 31.125C58.5947 31.125 59.6233 31.5533 60.474 32.4098C61.3247 33.2668 61.75 34.2969 61.75 35.5V61.75H9.25ZM13.625 57.375H27.4792V35.5H42.4271V15.5938L13.625 26.6771V57.375ZM31.8542 57.375H42.4271V49.3542H46.8021V57.375H57.375V39.875H31.8542V57.375Z" fill="white"/>
</g>
</svg>
