<svg width="101" height="119" viewBox="0 0 101 119" fill="none" xmlns="http://www.w3.org/2000/svg">
<path fill-rule="evenodd" clip-rule="evenodd" d="M2.43652 13.97L3.06799 6.39242L6.85678 3.86656V1.97217L18.8546 8.28682L11.277 26.5993L18.2232 28.4937L56.1111 49.3321L61.1628 54.3838H70.6348L71.8977 45.5433L83.8955 48.7006V49.9635L86.4214 51.8579L84.527 53.7523L89.5787 61.9614L97.1563 67.6445V70.8019L99.0507 73.3277L89.5787 77.1165L88.3158 81.5368L79.4753 89.7458L61.7943 104.901L51.0594 111.847L44.1132 114.373L27.6951 116.267L25.1693 114.373L22.0119 115.636L20.749 113.742L11.277 112.479V106.164L16.3288 102.375L18.8546 96.6919L11.9085 92.2717L13.1714 63.8558L5.59385 50.595V32.2825H3.06799L3.69945 14.6015L2.43652 13.97Z" fill="#C5EDDB" stroke="#C5EDDB" stroke-width="3.69726" stroke-linecap="round" stroke-linejoin="round"/>
</svg>
