<svg width="34" height="34" viewBox="0 0 34 34" fill="none" xmlns="http://www.w3.org/2000/svg">
<path d="M31.4268 0C32.775 0 33.8701 1.09511 33.8701 2.44336V3.44434L33.873 17.083C33.873 26.4239 26.2978 33.9998 16.957 34H0L28.834 5.16602L23.668 0H31.4268ZM16.999 16.9971L0.00195312 33.9971V28.25H4.50098V23.751H0.00195312V19.249H4.50098V14.7471H0.00195312V10.2451H4.50098V5.74707H0.00195312V0L16.999 16.9971ZM4.50684 19.2461V23.748H9.00879V19.2461H4.50684ZM9.01562 14.7471V19.249H13.5176V14.7471H9.01562ZM4.50684 10.2451V14.7471H9.00879V10.2451H4.50684Z" fill="#A1A1AA"/>
</svg>
