<svg width="436" height="132" viewBox="0 0 436 132" fill="none" xmlns="http://www.w3.org/2000/svg">
<path fill-rule="evenodd" clip-rule="evenodd" d="M2.12305 94.0678L9.06916 56.8114L18.5411 34.0786L16.6467 29.0269L17.9097 27.764L18.5411 23.3437L9.70063 13.8717V6.29416L11.595 2.50537L19.8041 4.39977L29.2761 9.45149L34.9592 15.1347L53.2717 23.9752L67.7954 22.7123L84.845 34.7101L166.304 35.3416L213.664 32.1842L261.024 34.7101L275.548 30.2898L319.75 29.6584L326.696 32.8157L347.535 48.6023L389.843 60.6002L401.841 66.9148L416.996 69.4407L434.045 64.389L416.364 93.4364L408.787 99.751L398.052 104.803L377.845 106.066L370.267 102.908L355.112 87.1217L345.009 73.2295L341.851 65.6519L329.854 63.126L324.17 64.389L315.33 59.3372H308.384L296.386 62.4946L289.44 66.9148L282.494 77.6497L288.808 85.2273L281.862 90.9105L266.707 93.4364L235.134 90.9105L221.241 98.4881L197.877 101.014L197.246 106.697L193.457 111.117L180.196 116.169L107.578 130.061L99.3687 127.535L93.6855 113.012L81.6877 98.4881L43.1683 107.96L2.12305 94.0678Z" fill="#C5EDDB" stroke="#C5EDDB" stroke-width="3.69726" stroke-linecap="round" stroke-linejoin="round"/>
</svg>
