<svg width="330" height="247" viewBox="0 0 330 247" fill="none" xmlns="http://www.w3.org/2000/svg">
<path fill-rule="evenodd" clip-rule="evenodd" d="M1.99609 196.957L26.6232 157.174L29.7806 160.332L44.3043 157.174L42.4099 170.435L48.0931 176.75L58.828 178.013L72.7202 169.804L82.8236 169.172L111.871 140.756L145.339 131.284L142.813 123.707L148.496 119.918V58.0343L153.548 59.2972L159.231 57.4028L157.337 32.1442L141.55 3.72826L169.966 2.46533L183.858 7.51705V10.6744L186.384 12.5688L183.227 22.0408L187.015 25.1981V27.7239L183.227 32.7757L185.121 36.5645L184.49 40.9847L179.438 49.1938L180.069 53.614L183.227 62.4545L188.91 66.2433L190.804 71.295L192.699 85.8187L207.222 98.448L216.694 110.446L224.272 131.284L223.009 135.704L237.533 136.967L243.216 140.125L247.005 143.914L260.265 145.808L281.735 155.911L312.677 166.015L324.675 171.698L327.201 174.855L324.043 176.118L319.623 175.487L308.257 183.064L298.153 186.222H281.104L276.683 188.116L271.632 193.168L260.265 195.062L256.477 200.114L255.845 205.166L258.371 212.112L257.108 215.269L241.321 224.11L223.009 227.898L207.854 242.422L203.433 244.317L202.171 243.054L199.645 235.476L194.593 229.793L184.49 222.847L168.703 215.901L155.442 215.269L152.916 209.586L147.865 205.166L140.287 204.534V202.008L151.653 193.168L153.548 188.748V176.75L136.498 153.386L121.974 157.174L112.503 162.226L107.451 169.172L101.768 172.329L98.6103 176.118L95.4529 176.75L94.8215 179.276L85.981 190.01L75.8775 199.482L22.203 212.743L1.99609 196.957Z" fill="#C5EDDB" stroke="#C5EDDB" stroke-width="3.69726" stroke-linecap="round" stroke-linejoin="round"/>
</svg>
