<svg width="224" height="198" viewBox="0 0 224 198" fill="none" xmlns="http://www.w3.org/2000/svg">
<path fill-rule="evenodd" clip-rule="evenodd" d="M1.4834 69.7153L2.74631 67.1895L48.2112 69.0839L87.993 55.1918L120.829 7.83252L165.662 5.93814L179.554 1.51794L212.39 2.1494V9.09543L203.55 22.356L218.073 40.6683L207.97 58.9805L209.233 60.2435L207.97 62.7693L206.076 61.5064L205.444 64.6637L199.761 65.9266V63.4007L197.867 65.9266L199.129 67.8209L195.972 74.1355L196.604 76.6613L194.078 79.8186L195.341 81.713L190.289 82.3445L222.493 105.708L213.653 134.755L82.9414 186.535L42.5281 196.638L31.7933 192.849L34.9506 184.641L38.7394 180.852L37.4765 173.906L43.791 169.486L43.1596 166.328L36.845 158.119L2.11486 144.227L9.69234 122.758L10.3238 101.288L5.9036 96.2365L1.4834 69.7153Z" fill="#014B56" stroke="white" stroke-width="1.45595" stroke-linecap="round" stroke-linejoin="round"/>
<path d="M75.6607 108.385L80.9021 114.937M75.6607 108.385L83.5956 101.615M75.6607 108.385L68.6721 114.063L71.3656 119.45V124.327M80.9021 114.937L89.3514 108.385M80.9021 114.937L77.9902 117.266L80.9588 120.833M87.0171 128.113L94.8792 121.707M87.0171 128.113L85.228 129.496M87.0171 128.113L80.9588 120.833M94.8792 121.707V116.101M94.8792 121.707L100.348 128.404M83.8868 141.799L78.3542 134.81M83.8868 141.799L90.8026 136.392M83.8868 141.799L88.2547 146.941M78.3542 134.81L85.228 129.496M78.3542 134.81L75.3695 130.734M85.228 129.496L90.8026 136.392M90.8026 136.392L91.8945 135.538L95.2432 134.592L101.358 129.642L100.348 128.404M75.3695 130.734V124.327M75.3695 130.734H71.3656M75.3695 124.327L76.5342 124.182L80.9588 120.833M75.3695 124.327H71.3656M80.9588 120.833L86.9443 116.101L94.3696 115.956L94.8792 116.101M94.8792 116.101L95.8984 116.086M139.14 109.55L133.316 113.699L128.075 116.101L123.27 115.665L110.094 115.867M139.14 109.55L141.251 112.025L144.236 114.5L146.784 115.301L165.274 115.009L174.957 118.212L179.616 120.925M139.14 109.55L127.129 92.8789L127.137 91.6413M214.413 132.99L212.593 131.898L190.39 126.075L185.585 124.4L179.616 120.925M122.834 8.06973L125.745 12.1464L127.638 17.8974L127.197 82.76M127.137 91.6413L125.309 92.8061C122.275 93.0973 116.18 93.6797 116.063 93.6797C115.947 93.6797 110.288 94.6503 107.473 95.1356L92.9137 92.2237M127.137 91.6413L127.197 82.76M92.9137 92.2237L87.3811 96.7372L83.5956 101.615M92.9137 92.2237L68.6721 86.4727L62.7755 84.4344L46.8328 75.8443L41.009 73.078L37.3691 68.6373M83.5956 101.615L95.8984 116.086M95.8984 116.086L102.814 115.979M71.3656 130.734V124.327M71.3656 130.734H68.8177L62.9425 134.81M102.814 115.979V126.075L100.348 128.404M102.814 115.979L110.094 115.867M110.094 115.867V123.963L109.366 135.174L107.692 138.45L106.09 139.688L88.2547 146.941M85.1972 166.259V158.178H81.7029V154.83L79.9557 150.316L88.2547 146.941M179.616 120.925L159.451 156.358M127.197 82.76L152.608 83.2696C155.617 80.6489 161.722 75.4075 162.071 75.4075C162.421 75.4075 172.7 75.4075 177.796 75.4075L181.508 74.6795L187.987 68.7101L211.647 37.4072M57.8253 133.063L58.4804 134.374L59.9364 133.5L61.6835 135.684L62.9425 134.81M62.9425 134.81L65.1778 138.232" stroke="white" stroke-width="0.727976"/>
</svg>
