<svg width="226" height="200" viewBox="0 0 226 200" fill="none" xmlns="http://www.w3.org/2000/svg">
<path fill-rule="evenodd" clip-rule="evenodd" d="M2.55469 70.5723L3.81762 68.0464L49.2831 69.9408L89.0654 56.0486L121.902 8.68868L166.736 6.79428L180.628 2.37402L213.464 3.00549V9.95161L204.624 23.2124L219.147 41.5249L209.044 59.8374L210.307 61.1003L209.044 63.6262L207.149 62.3632L206.518 65.5205L200.835 66.7835V64.2576L198.94 66.7835L200.203 68.6779L197.046 74.9925L197.677 77.5184L195.152 80.6757L196.415 82.5701L191.363 83.2016L223.568 106.566L214.727 135.613L84.0137 187.393L43.5999 197.497L32.865 193.708L36.0223 185.499L39.8111 181.71L38.5482 174.764L44.8629 170.344L44.2314 167.186L37.9167 158.977L3.18615 145.085L10.7637 123.615L11.3952 102.146L6.97494 97.0938L2.55469 70.5723Z" fill="#C5EDDB" stroke="#C5EDDB" stroke-width="3.69726" stroke-linecap="round" stroke-linejoin="round"/>
</svg>
