<svg width="97" height="145" viewBox="0 0 97 145" fill="none" xmlns="http://www.w3.org/2000/svg">
<path fill-rule="evenodd" clip-rule="evenodd" d="M2.13867 5.44016L28.0287 2.28284L34.3434 23.1212L34.9749 33.2246H45.0783L79.8089 16.8065L79.1774 22.4897L80.4404 25.6471L79.1774 30.6988L80.4404 33.8561L84.8606 31.3302L87.3865 34.4876L88.0179 31.9617L90.5438 33.8561V36.382L94.3326 37.6449L93.0697 39.5393L93.7011 42.0651L86.1236 43.3281L89.2809 45.8539L86.755 47.1169L87.3865 49.0113L85.4921 54.6945L82.3348 55.3259V52.8001H80.4404V50.9057L76.6516 50.2742L75.3886 48.3798L74.7572 51.5371L69.7055 53.4315L74.1257 62.272H75.3886L77.9145 66.6923L79.8089 66.0608V67.9552L84.8606 74.9013L84.2292 77.4272L86.1236 79.9531L82.9662 80.5845L81.0718 83.1104L82.3348 85.6363L80.4404 88.7936L79.8089 93.2138L77.283 94.4768L76.6516 98.2656L74.1257 98.897L75.3886 103.317L78.546 107.106L74.7572 118.472L78.546 141.205L54.5503 142.468L57.7076 138.048L52.6559 139.942L46.9727 139.311L47.6042 136.785L52.0244 134.891V133.628L47.6042 131.733L44.4468 127.313L42.5524 122.893L43.1839 117.841L40.0266 112.789L34.3434 111.526L31.8175 105.843H29.2917L24.24 102.054V98.2656L22.977 95.7397L14.1365 94.4768L17.2938 91.9509L22.977 91.3194V88.7936L18.5568 85.6363L19.1882 83.7419L13.505 78.0587L10.3477 79.9531V78.0587L12.8736 75.5328L19.1882 76.1643V79.9531L21.0826 80.5845L25.5029 78.6901L27.3973 76.7957L30.5546 76.1643L32.449 70.4811L36.8693 71.744L35.6063 67.9552L36.8693 66.0608L33.7119 64.7979L33.0805 59.7462L29.9231 59.1147V56.5888L34.3434 54.6945L33.7119 51.5371L26.1344 47.7483L24.8714 45.8539L21.0826 46.4854L19.8197 43.9595L9.08479 43.3281V37.0134L12.8736 35.119L11.6107 29.4358L16.6624 30.0673L10.9792 26.91L11.6107 22.4897L14.768 17.438L20.4512 18.0695L17.9253 16.1751L18.5568 11.7548L16.6624 13.0177L15.3994 15.5436L7.19039 18.0695V16.1751L12.2421 14.2807L13.505 8.59749L7.82186 14.2807V11.7548L9.71625 9.22895L4.03307 7.96602L2.13867 5.44016Z" fill="#C5EDDB" stroke="#C5EDDB" stroke-width="3.69726" stroke-linecap="round" stroke-linejoin="round"/>
</svg>
