<svg width="517" height="624" viewBox="0 0 517 624" fill="none" xmlns="http://www.w3.org/2000/svg">
<path fill-rule="evenodd" clip-rule="evenodd" d="M2.31934 37.1056L8.63399 33.3168L12.4228 33.9483L16.843 30.1595L20.0004 25.1077L16.843 17.5302L23.7892 11.847L27.5779 2.375L53.468 3.63793L56.6253 7.42672L66.0973 11.2155L70.5176 16.8987L92.6189 134.983L275.744 292.218L290.267 308.636L367.938 477.237L414.035 505.021L426.032 507.547L429.821 511.967L432.347 520.176V533.437L437.399 532.806L443.714 528.386L444.976 523.965L443.714 516.388L444.976 514.493L446.871 513.862L453.817 517.019L455.711 511.967L457.606 512.599L462.026 518.282L474.024 520.176L476.55 523.334L478.444 530.28L487.285 532.174L489.81 535.332L496.757 536.595L498.02 537.857V540.383L494.862 546.698L495.494 548.592L499.282 550.487L504.966 548.592L506.86 549.855V552.381L502.44 561.222L499.914 562.485L497.388 561.853L490.442 555.539L485.39 553.013L480.97 552.381L477.813 555.539V559.959L478.444 567.536L481.601 570.062L492.968 569.431L498.651 574.482L508.123 577.64L509.392 579.534L508.754 582.692L502.44 589.006L501.824 595.348L505.608 599.133L511.28 598.478L513.806 601.004L514.438 607.319L504.347 620.581L499.282 621.211L463.289 604.161L438.03 578.903L393.196 569.431L366.043 559.327L297.845 510.704L294.688 506.284L299.739 497.444L229.647 345.892L37.0499 180.448L25.6835 160.241L14.3172 100.568L2.31934 37.1056Z" fill="#C5EDDB" stroke="#C5EDDB" stroke-width="3.69726" stroke-linecap="round" stroke-linejoin="round"/>
</svg>
