<svg width="362" height="141" viewBox="0 0 362 141" fill="none" xmlns="http://www.w3.org/2000/svg">
<path fill-rule="evenodd" clip-rule="evenodd" d="M2.53516 118.703L6.95541 118.072L16.4274 119.966L18.9533 117.44L17.6903 108.6L18.3218 104.811L24.005 96.602L48.6321 92.8132L65.0502 65.6602L71.3649 61.2399H140.826V51.1365L214.707 52.3994L226.705 51.1365L234.283 49.2421L252.595 35.9813L259.542 23.9835L286.695 35.3499L292.378 32.824H317.636L334.054 2.51367L350.473 18.3003L358.05 22.0891L342.263 37.2443V56.1882L359.313 53.0309L357.419 94.7076L347.315 96.602L342.895 99.7593L340.369 102.285L330.897 115.546L329.634 124.386H320.162L315.11 119.335L277.223 98.4964L270.276 96.602L277.854 78.2895L265.856 71.9748V73.8692L262.067 76.3951L261.436 83.9727L262.699 84.6042L262.383 93.1289L262.067 102.285H264.593V120.598L219.128 115.546L210.919 117.44L169.242 114.914L157.876 111.126L145.878 102.285L80.8369 104.18L77.6795 113.652L61.2614 123.124L63.1558 125.649L73.2593 128.807V132.596L69.4705 138.279H58.7356L43.5804 134.49L37.8972 131.333H34.7399L30.3196 135.753H18.3218L11.3757 123.755L2.53516 118.703Z" fill="#C5EDDB" stroke="#C5EDDB" stroke-width="3.69726" stroke-linecap="round" stroke-linejoin="round"/>
</svg>
