<svg width="378" height="770" viewBox="0 0 378 770" fill="none" xmlns="http://www.w3.org/2000/svg">
<path fill-rule="evenodd" clip-rule="evenodd" d="M2.0918 755.19L10.9323 749.506L15.3526 741.929L12.8267 738.14L20.4043 731.825L29.2448 717.302L31.7707 709.724L32.4021 705.304L31.1392 701.515L33.0336 691.727L41.8741 657.944L43.7685 652.892L49.4517 644.052L29.8763 609.321L21.0358 606.795L12.8267 601.743L19.1414 600.481L26.7189 596.692L51.9776 573.328L53.2405 571.433L50.7146 558.804L73.4474 533.545L75.3418 534.177L79.762 531.651V529.756L76.6047 526.283L77.2362 524.705L82.9193 520.916L84.1823 521.863L85.4452 524.073L82.2879 529.125L84.1823 532.282L90.4969 525.968L89.8655 520.916L90.1812 518.706L90.8127 517.443L92.3913 515.864L91.7599 513.338L93.6543 510.181V505.129L95.5487 503.866L98.706 498.815V495.657L97.4431 494.394L92.3913 493.763L89.8655 488.08L93.0228 485.554L95.5487 478.608L99.3374 476.082L98.0745 472.293L101.863 464.084L100.6 463.453L103.758 462.19V458.401L107.546 459.032L108.809 453.981L101.863 414.198L107.546 332.739L69.6586 271.487L99.9689 181.819L107.546 76.3645L80.3935 29.636L87.3396 11.955H91.1284L92.3913 16.3753L106.284 23.3214L117.65 22.0584L127.753 10.6921L131.542 2.48303L135.331 1.85156L137.225 6.27182L134.7 15.1123L127.122 26.4787L126.49 30.899L128.385 34.6878L134.7 39.108L141.646 41.6339L146.066 41.0024L147.96 42.8968L146.697 46.0541L143.54 49.2115L138.488 66.8925L136.594 332.739L161.853 355.472L199.109 421.144L375.919 543.649L364.553 561.33L312.141 557.541L298.88 563.224L291.303 561.33L283.094 556.278L280.568 553.752L276.779 545.543L269.833 544.28L261.624 548.7L254.678 556.278L183.322 585.957L177.008 630.791L160.59 635.843H146.697L141.014 632.054L125.859 638.368L122.07 659.838V671.205L116.387 688.254L114.493 697.095L115.756 707.83L119.544 718.565L127.122 729.931L135.331 738.14L134.068 741.929L131.542 740.666V744.455L125.228 745.718L121.439 748.243L120.807 751.401L124.596 756.452L122.702 758.978L118.913 760.241L98.706 757.084L96.1801 758.347L94.2857 763.399L89.234 759.61V758.347L86.7081 759.61L83.5508 757.715L79.762 758.978L75.3418 756.452L74.7103 758.347L76.6047 760.241L74.7103 762.767L75.9732 765.293L73.4474 767.187L70.29 764.03L71.553 761.504L69.0271 759.61L68.3956 755.821L61.4495 755.19V752.032L59.5551 749.506L52.609 748.875L55.1349 745.718L58.9237 743.823L60.1866 738.771L57.6607 738.14L45.0314 741.297L35.5595 740.666L34.2965 742.56V746.98L33.0336 749.506L18.5099 755.19L14.7211 764.662L10.3008 767.819L3.35473 767.187L7.14352 765.924L8.40645 762.136L7.77498 759.61L2.0918 755.19Z" fill="#C5EDDB" stroke="#C5EDDB" stroke-width="3.69726" stroke-linecap="round" stroke-linejoin="round"/>
</svg>
