<svg width="220" height="175" viewBox="0 0 220 175" fill="none" xmlns="http://www.w3.org/2000/svg">
<path fill-rule="evenodd" clip-rule="evenodd" d="M2.73242 99.2178L39.9889 104.27L64.616 105.532L87.9802 41.123L98.7151 31.0196L106.293 17.1273L142.286 1.97217L139.76 112.479L146.707 114.373L163.125 121.951L192.803 123.213L206.064 118.162L218.062 128.897V130.791L210.484 140.263L203.538 142.157L196.592 138.369L185.857 152.892L185.226 158.576L192.803 162.996V164.259L182.7 160.47L175.754 167.416L166.282 168.679L156.178 159.207H153.021L141.023 168.048L132.814 168.679L130.92 171.205H127.131L127.763 168.048L113.87 161.101L105.661 145.315L93.032 143.42L79.1397 136.474L71.5621 143.42L69.6677 144.052L67.1419 142.789L65.2475 149.104L66.5104 151.629L69.6677 152.261L68.4048 153.524L69.0363 155.418L63.3531 154.787L61.4587 157.944V160.47L57.0384 161.101L42.5147 173.099L37.463 159.207V156.681L34.9371 151.629V149.104L30.5169 151.629L27.991 150.366L27.3596 144.683L24.2022 142.157L21.6764 143.42L5.88975 116.899L2.73242 99.2178Z" fill="#C5EDDB" stroke="#C5EDDB" stroke-width="3.69726" stroke-linecap="round" stroke-linejoin="round"/>
</svg>
