<svg width="810" height="2592" viewBox="0 0 810 2592" fill="none" xmlns="http://www.w3.org/2000/svg">
<path fill-rule="evenodd" clip-rule="evenodd" d="M2.56152 2039.62L28.2334 1972.04L17.9647 1865.84L59.0397 1774.11L28.2334 1711.36L12.8303 1581.01L89.846 1339.64L84.7117 1218.95L141.19 943.785L264.415 885.855L305.49 769.996L372.237 779.651L598.15 702.411L680.911 559.177L660.373 539.867L724.505 339.08L700.074 246.586L675.032 188.562L591.966 139.73L539.439 133.411L521.726 67.9179L510.732 35.1716L486.301 32.2991L486.911 45.5125L483.247 48.9595L464.923 50.1085L429.498 44.938L422.169 40.3421L412.396 24.2562L410.564 17.3622L428.887 2.42529L444.767 4.72328L449.043 8.17026L446.6 24.2562L464.312 13.3407L515.007 14.4897L548.6 4.72328L585.858 28.8521L629.224 82.2803L679.918 108.133L729.392 135.709L764.206 180.519L786.805 231.649L805.739 303.462L804.518 310.93L807.572 315.526L806.961 343.102L801.464 371.827L748.631 559.177L644.359 755.513L336.296 861.718L300.356 934.13L207.937 977.578L156.593 1223.78V1349.29L84.7117 1585.84L94.9804 1696.87L130.921 1774.11L84.7117 1880.32L94.9804 1967.21L74.4429 2029.97L146.324 2107.21L187.399 2213.41L305.49 2189.28L326.028 2198.93L351.7 2266.52L444.118 2276.17L541.672 2435.48L567.344 2459.62L695.703 2488.58L736.778 2580.3L670.031 2589.96L654.628 2536.86L551.941 2517.55L495.462 2493.41L474.925 2474.1L397.909 2329.27L305.49 2319.62L290.087 2305.14L274.684 2256.86L156.593 2276.17L141.19 2266.52L130.921 2256.86L89.846 2131.35L2.56152 2039.62Z" fill="#C5EDDB" stroke="#C5EDDB" stroke-width="3.69726" stroke-linecap="round" stroke-linejoin="round"/>
</svg>
