<svg width="211" height="396" viewBox="0 0 211 396" fill="none" xmlns="http://www.w3.org/2000/svg">
<path fill-rule="evenodd" clip-rule="evenodd" d="M1.84668 335.525V334.262L15.1074 331.104L25.2109 327.316L34.0514 320.369L59.31 288.796L71.3079 245.225L92.1462 214.283L104.144 207.337L129.403 202.917L131.297 147.348L133.191 129.667L144.558 73.4665L153.398 75.9924L163.502 45.0506L148.347 33.6842V22.3179L160.976 24.8437L170.448 22.3179L176.763 17.8976L191.918 2.74243L193.812 6.53122H196.338L195.706 9.68855L204.547 24.8437L203.284 29.264L203.916 32.4213L208.967 38.1045L208.336 52.6282H205.81L191.286 64.626L180.551 58.9428V76.6239L146.452 133.456L142.663 146.717L142.032 206.074L149.61 220.598L150.241 228.807L148.347 233.227L134.454 252.803L132.56 257.854L135.086 261.012L149.61 267.958L138.875 294.479L140.769 304.583L165.396 323.527L149.61 344.997L150.872 374.675L148.978 379.727L132.56 373.413L121.825 387.936L106.038 388.568L101.618 392.988L95.3035 392.356L90.8833 387.936L92.7777 374.675L83.9372 372.781L75.0966 381.622L70.6764 391.725L64.9932 393.619L48.5751 367.098L6.26694 366.466L1.84668 335.525Z" fill="#C5EDDB" stroke="#C5EDDB" stroke-width="3.69726" stroke-linecap="round" stroke-linejoin="round"/>
</svg>
